<svg width="512" height="512" viewBox="0 0 512 512" xmlns="http://www.w3.org/2000/svg">
  <circle cx="256" cy="256" r="256" fill="#98140A"/>
  <g stroke="none" fill-rule="evenodd" shape-rendering="geometricPrecision">
  <path d="M 216.470 430.320 L 172.948 426.549 L 141.581 415.654 L 123.544 405.597 L 107.077 391.349 L 84.335 360.341 L 60.026 360.341 L 51.007 350.703 L 40.813 254.324 L 45.518 242.591 L 56.497 235.886 L 59.633 209.068 L 71.396 176.383 L 83.943 157.107 L 98.451 141.603 L 122.760 123.165 L 157.264 106.403 L 220.783 87.966 L 272.539 81.261 L 321.159 81.261 L 359.584 87.966 L 390.951 103.051 L 420.358 129.450 L 439.570 159.202 L 458.391 159.202 L 467.409 168.840 L 483.877 271.923 L 482.308 286.171 L 473.290 295.809 L 458.783 300.418 L 452.509 323.884 L 437.610 350.703 L 416.829 372.912 L 394.872 388.835 L 354.879 407.273 L 298.417 423.196 L 226.665 430.320 Z" fill="rgb(1,0,0)"/>
  <path d="M 70.612 233.372 L 81.983 232.953 L 96.098 227.086 L 107.077 227.924 L 112.958 209.068 L 126.289 185.602 L 155.696 163.393 L 183.927 150.821 L 233.330 136.574 L 278.029 129.869 L 310.180 129.031 L 333.706 134.060 L 360.368 145.793 L 377.620 158.364 L 386.246 170.097 L 412.124 164.231 L 419.966 165.069 L 428.200 160.459 L 416.437 141.184 L 398.009 121.489 L 378.404 108.079 L 353.310 98.023 L 321.943 92.156 L 287.439 91.318 L 223.920 98.861 L 155.696 118.974 L 132.955 129.869 L 109.429 145.793 L 88.648 168.002 L 75.317 192.306 L 66.691 230.858 L 67.083 233.791 L 70.612 233.372 Z" fill="rgb(1,0,0)"/>
  <path d="M 68.652 233.791 L 70.612 210.744 L 76.886 190.630 L 90.217 167.164 L 109.429 146.631 L 129.818 132.384 L 157.264 118.974 L 227.841 98.861 L 263.129 93.832 L 309.396 92.156 L 358.799 100.537 L 385.462 113.108 L 398.793 123.165 L 414.869 140.345 L 427.416 160.459 L 419.182 165.069 L 410.556 164.231 L 386.246 169.259 L 378.404 158.364 L 361.152 145.793 L 335.274 134.060 L 311.748 129.031 L 276.460 129.869 L 231.762 136.574 L 182.358 150.821 L 154.912 163.393 L 126.289 184.763 L 112.174 209.906 L 107.077 227.086 L 97.666 226.248 L 68.652 233.791 Z" fill="rgb(242,74,5)"/>
  <path d="M 236.859 419.425 L 276.460 415.654 L 324.295 405.597 L 383.109 382.969 L 404.282 369.559 L 424.279 350.703 L 436.826 333.103 L 448.588 302.094 L 433.297 301.675 L 401.930 310.056 L 387.030 331.846 L 363.505 347.769 L 337.627 359.502 L 309.396 368.721 L 263.129 378.778 L 208.236 382.131 L 188.632 377.940 L 158.049 365.369 L 136.876 348.607 L 122.760 353.636 L 94.922 357.407 L 103.548 371.655 L 119.624 388.835 L 148.638 407.273 L 188.632 418.168 L 236.859 419.425 Z" fill="rgb(1,0,0)"/>
  <path d="M 233.330 419.006 L 188.632 417.330 L 147.070 405.597 L 118.839 387.159 L 95.706 358.245 L 137.660 349.446 L 157.264 365.369 L 187.063 377.940 L 214.510 382.969 L 264.697 378.778 L 336.842 360.341 L 364.289 347.769 L 387.814 331.846 L 402.714 310.056 L 434.081 301.675 L 447.804 302.094 L 441.531 321.370 L 427.416 345.674 L 410.556 363.693 L 386.246 380.454 L 353.310 395.540 L 310.964 408.111 L 277.244 414.816 L 233.330 419.006 Z" fill="rgb(242,74,5)"/>
  <path d="M 232.154 319.694 L 254.111 313.827 L 246.661 260.609 L 268.618 312.570 L 283.910 307.961 L 293.712 254.743 L 298.809 306.285 L 323.119 302.932 L 310.180 199.430 L 279.205 205.715 L 271.755 258.933 L 251.366 209.487 L 220.391 216.610 L 228.233 318.018 L 232.154 319.694 Z" fill="rgb(1,0,0)"/>
  <path d="M 233.330 319.275 L 229.017 318.018 L 221.175 216.610 L 251.366 210.325 L 256.464 221.639 L 254.895 224.153 L 257.248 224.153 L 268.226 255.162 L 272.539 259.771 L 279.989 206.553 L 309.396 199.430 L 322.335 302.932 L 299.594 306.285 L 294.889 254.324 L 292.928 253.905 L 283.126 307.961 L 268.618 311.732 L 246.661 258.933 L 253.327 313.827 L 233.330 319.275 Z" fill="rgb(167,47,141)"/>
  <path d="M 71.396 342.322 L 91.785 337.293 L 86.296 284.495 L 86.296 279.466 L 90.609 274.019 L 96.098 274.857 L 98.843 281.980 L 104.332 334.779 L 127.857 331.427 L 122.368 271.085 L 129.818 264.800 L 134.915 271.923 L 141.189 327.237 L 164.714 323.046 L 158.441 260.190 L 150.207 241.334 L 144.717 237.981 L 135.307 237.981 L 125.113 243.010 L 114.918 253.905 L 106.292 247.200 L 95.314 247.200 L 81.199 260.609 L 78.846 252.229 L 58.849 257.676 L 68.260 340.646 L 71.396 342.322 Z" fill="rgb(1,0,0)"/>
  <path d="M 74.141 341.065 L 69.044 340.646 L 60.418 256.838 L 78.846 253.067 L 81.983 260.609 L 95.314 248.038 L 106.292 248.038 L 114.918 254.743 L 132.170 239.658 L 145.502 238.819 L 150.207 242.172 L 157.656 260.190 L 163.930 323.046 L 141.973 327.237 L 135.699 271.923 L 129.818 263.962 L 121.584 271.085 L 127.857 329.751 L 105.116 334.779 L 98.843 278.628 L 96.098 274.019 L 91.393 273.181 L 85.512 281.142 L 91.001 337.293 L 74.141 341.065 Z" fill="rgb(167,47,141)"/>
  <path d="M 403.890 289.523 L 423.495 285.333 L 417.613 235.467 L 438.786 282.399 L 464.272 276.952 L 449.765 177.640 L 429.768 182.249 L 438.002 230.439 L 434.473 228.343 L 413.692 184.344 L 390.559 190.630 L 399.969 286.171 L 403.890 289.523 Z" fill="rgb(1,0,0)"/>
  <path d="M 359.976 298.742 L 372.915 294.971 L 385.854 282.818 L 391.343 268.571 L 392.127 251.810 L 389.775 235.886 L 381.933 218.287 L 370.562 208.649 L 356.447 206.134 L 340.763 210.325 L 328.608 221.639 L 323.119 235.886 L 322.335 256.838 L 326.256 276.114 L 333.314 289.523 L 345.468 297.485 L 359.976 298.742 Z" fill="rgb(1,0,0)"/>
  <path d="M 403.498 289.104 L 399.969 280.304 L 391.343 190.630 L 413.692 185.183 L 416.045 191.049 L 401.930 191.049 L 396.440 193.563 L 396.048 196.497 L 415.261 193.563 L 416.829 191.049 L 433.689 228.343 L 438.002 231.277 L 439.178 224.991 L 430.552 182.249 L 448.981 178.478 L 464.272 276.114 L 439.570 282.399 L 416.829 234.629 L 422.710 284.495 L 403.498 289.104 Z" fill="rgb(167,47,141)"/>
  <path d="M 359.584 298.323 L 344.684 296.647 L 334.098 289.523 L 327.040 276.114 L 323.119 256.838 L 323.903 235.886 L 329.393 221.639 L 339.195 212.001 L 356.447 206.973 L 368.994 208.649 L 381.149 218.287 L 388.991 235.886 L 391.343 251.810 L 390.559 268.571 L 385.070 282.818 L 374.483 293.294 L 359.584 298.323 Z" fill="rgb(167,47,141)"/>
  <path d="M 232.154 373.331 L 276.460 367.883 L 314.101 358.664 L 342.332 348.607 L 369.386 333.941 L 340.763 323.465 L 314.885 325.141 L 289.791 337.712 L 267.834 361.179 L 266.658 359.083 L 274.892 345.255 L 259.992 341.065 L 239.604 340.227 L 216.078 347.769 L 189.024 368.302 L 209.805 373.750 L 232.154 373.331 Z" fill="rgb(1,0,0)"/>
  <path d="M 233.330 372.912 L 209.020 372.912 L 189.808 368.302 L 211.373 351.122 L 237.251 341.065 L 256.856 341.065 L 273.323 345.255 L 265.874 359.921 L 268.618 361.179 L 290.576 337.712 L 316.454 325.141 L 342.332 324.303 L 368.602 333.941 L 338.411 349.446 L 308.612 359.502 L 233.330 372.912 Z" fill="rgb(209,36,32)"/>
  <path d="M 203.923 321.370 L 218.823 313.827 L 218.039 291.199 L 216.862 289.104 L 204.315 297.485 L 196.474 296.647 L 188.240 285.333 L 187.455 271.923 L 190.592 265.219 L 198.826 258.933 L 214.902 262.705 L 213.333 241.753 L 206.668 237.143 L 193.337 236.305 L 180.006 242.172 L 170.988 252.648 L 165.498 270.247 L 166.282 291.199 L 171.772 306.285 L 178.437 315.084 L 192.553 321.789 L 203.923 321.370 Z" fill="rgb(1,0,0)"/>
  <path d="M 205.100 320.951 L 190.984 320.951 L 178.437 314.246 L 172.556 306.285 L 167.067 291.199 L 166.282 270.247 L 171.772 252.648 L 180.790 242.172 L 193.337 237.143 L 203.531 237.143 L 212.549 241.753 L 214.118 261.867 L 197.258 258.933 L 189.808 265.219 L 186.671 271.923 L 187.455 285.333 L 194.121 295.809 L 204.315 298.323 L 217.254 290.361 L 218.823 312.151 L 205.100 320.951 Z" fill="rgb(167,47,141)"/>
  <path d="M 249.406 189.792 L 256.071 189.373 L 270.579 177.221 L 274.500 161.297 L 272.539 139.926 L 230.978 145.793 L 210.981 152.079 L 217.254 173.030 L 226.272 184.344 L 238.035 190.211 L 249.406 189.792 Z" fill="rgb(1,0,0)"/>
  <path d="M 249.014 190.211 L 238.035 190.211 L 226.272 184.344 L 217.254 173.030 L 210.981 152.079 L 272.539 139.926 L 274.500 161.297 L 272.147 172.192 L 263.129 185.183 L 249.014 190.211 Z" fill="rgb(249,225,186)"/>
  <path d="M 178.829 207.392 L 191.768 201.944 L 200.787 188.954 L 202.355 164.650 L 200.394 154.174 L 163.538 169.259 L 142.757 182.249 L 155.696 201.106 L 169.027 207.811 L 178.829 207.392 Z" fill="rgb(1,0,0)"/>
  <path d="M 178.437 207.811 L 169.027 207.811 L 159.617 203.620 L 142.757 182.249 L 163.538 169.259 L 199.610 155.012 L 202.355 164.650 L 200.787 188.954 L 191.768 201.944 L 178.437 207.811 Z" fill="rgb(249,225,186)"/>
  <path d="M 317.630 173.868 L 329.000 170.097 L 334.882 163.812 L 338.019 155.431 L 337.627 144.955 L 308.612 137.412 L 282.342 139.507 L 288.615 157.945 L 297.633 169.259 L 306.259 173.449 L 317.630 173.868 Z" fill="rgb(1,0,0)"/>
  <path d="M 317.238 174.288 L 306.259 173.449 L 298.417 169.259 L 287.831 155.431 L 282.342 139.507 L 309.396 138.250 L 337.627 144.955 L 338.019 155.431 L 334.882 163.812 L 329.000 170.097 L 317.238 174.288 Z" fill="rgb(249,225,186)"/>
  <path d="M 359.976 274.438 L 365.465 270.247 L 367.033 265.219 L 366.249 246.781 L 361.544 232.534 L 353.310 229.601 L 346.645 239.238 L 347.429 261.867 L 354.094 274.019 L 359.976 274.438 Z" fill="rgb(167,47,141)"/>
  <path d="M 360.368 274.019 L 354.879 274.019 L 351.350 270.247 L 347.429 256.000 L 347.429 240.077 L 353.310 230.439 L 360.368 232.115 L 364.681 242.591 L 366.249 265.219 L 360.368 274.019 Z" fill="rgb(1,0,0)"/>
  <path d="M 227.449 227.505 L 252.151 222.058 L 252.543 219.963 L 245.877 217.868 L 230.193 221.220 L 224.312 224.153 L 227.449 227.505 Z" fill="rgb(167,47,141)"/>
  <path d="M 341.940 221.639 L 367.033 214.934 L 352.526 212.839 L 342.332 217.029 L 340.371 219.125 L 341.940 221.639 Z" fill="rgb(167,47,141)"/>
  <path d="M 130.994 251.810 L 146.678 245.943 L 142.365 242.172 L 136.876 242.172 L 129.426 248.457 L 128.642 251.810 L 130.994 251.810 Z" fill="rgb(167,47,141)"/>
  <path d="M 110.605 258.514 L 111.390 256.000 L 105.508 253.067 L 94.138 254.324 L 96.098 258.933 L 110.605 258.514 Z" fill="rgb(167,47,141)"/>
  <path d="M 227.057 227.924 L 224.312 225.829 L 252.543 219.963 L 252.151 222.058 L 227.057 227.924 Z" fill="rgb(184,73,160)"/>
  <path d="M 225.488 226.248 L 225.488 223.734 L 234.898 220.382 L 250.974 219.963 L 225.488 226.248 Z" fill="rgb(197,93,176)"/>
  <path d="M 343.116 219.544 L 341.155 219.125 L 350.173 213.677 L 365.465 214.934 L 343.116 219.544 Z" fill="rgb(197,93,176)"/>
  <path d="M 68.260 265.219 L 79.238 260.190 L 76.493 258.095 L 68.652 259.771 L 65.123 262.705 L 68.260 265.219 Z" fill="rgb(167,47,141)"/>
  <path d="M 341.547 222.058 L 340.763 218.706 L 367.033 214.934 L 341.547 222.058 Z" fill="rgb(184,73,160)"/>
  <path d="M 110.213 257.257 L 95.314 257.257 L 94.138 255.162 L 103.156 253.067 L 110.213 257.257 Z" fill="rgb(197,93,176)"/>
  <path d="M 130.602 252.229 L 128.642 251.810 L 129.818 248.038 L 146.678 245.943 L 130.602 252.229 Z" fill="rgb(184,73,160)"/>
  <path d="M 397.224 196.916 L 396.440 193.563 L 416.437 191.468 L 397.224 196.916 Z" fill="rgb(184,73,160)"/>
  <path d="M 130.602 249.714 L 136.091 243.010 L 145.109 244.267 L 130.602 249.714 Z" fill="rgb(197,93,176)"/>
  <path d="M 67.867 263.124 L 65.907 262.705 L 69.436 259.771 L 75.709 258.095 L 78.454 260.190 L 67.867 263.124 Z" fill="rgb(197,93,176)"/>
  <path d="M 110.213 258.933 L 94.922 257.676 L 110.998 255.581 L 110.213 258.933 Z" fill="rgb(184,73,160)"/>
  <path d="M 397.224 195.239 L 406.635 190.211 L 414.869 190.630 L 397.224 195.239 Z" fill="rgb(197,93,176)"/>
  <path d="M 67.867 265.638 L 66.299 263.124 L 79.238 260.190 L 67.867 265.638 Z" fill="rgb(184,73,160)"/>
  </g>
</svg>

